<svg width="173" height="71" viewBox="0 0 173 71" fill="none" xmlns="http://www.w3.org/2000/svg">
<g opacity="0.25">
<path d="M50.7032 35.2974C50.6771 16.0941 66.5713 0.372561 85.882 0.206454C105.372 0.0370904 121.885 15.5209 121.947 35.3527C122.005 54.4876 106.007 70.3003 86.7809 70.499C66.8383 70.7042 50.4784 54.5788 50.7064 35.2974H50.7032ZM53.0449 34.0955C53.0417 37.8183 53.3967 40.5379 54.0123 43.2379C54.2109 44.1108 54.465 44.4691 55.4975 44.1271C61.2754 42.2185 67.0696 40.3652 72.8768 38.5511C73.8767 38.2384 74.2871 37.8964 74.1503 36.7402C73.7236 33.1086 74.7756 29.8582 77.3421 27.2005C78.0457 26.4709 77.9968 26.0377 77.4627 25.3212C73.7855 20.3705 70.1279 15.4101 66.4931 10.4302C65.9654 9.70386 65.6202 9.6778 64.933 10.2673C57.2888 16.8204 53.3511 25.0834 53.0449 34.0955ZM85.9764 2.54498C85.3088 2.58732 84.2112 2.6264 83.1168 2.73063C77.8828 3.22569 73.0592 4.91933 68.5841 7.61939C68.0076 7.96788 67.8708 8.26101 68.3365 8.89286C72.1081 13.9803 75.8407 19.0938 79.5667 24.2138C79.9477 24.7382 80.2572 24.8554 80.9086 24.5493C84.5662 22.8165 88.2596 22.8003 91.9139 24.5721C92.51 24.8619 92.7966 24.7382 93.1581 24.2464C96.8711 19.1687 100.6 14.1008 104.346 9.0492C104.802 8.43363 104.76 8.11444 104.082 7.69429C98.682 4.32981 92.7836 2.65246 85.9764 2.54824V2.54498ZM85.2534 57.7739C85.2534 54.7253 85.2501 51.6735 85.2566 48.625C85.2566 48.0518 85.2632 47.5567 84.488 47.4329C80.3549 46.7718 77.3552 44.5375 75.3684 40.945C75.1274 40.5086 74.9027 40.3718 74.375 40.5411C68.2258 42.5312 62.0701 44.4984 55.9111 46.4558C55.2597 46.6643 55.2011 46.9542 55.4323 47.5632C59.6469 58.7738 71.9518 67.5579 84.1167 68.053C85.0677 68.0921 85.2697 67.7631 85.2632 66.9228C85.2306 63.8743 85.2501 60.8225 85.2534 57.7739ZM119.468 36.6588C119.537 35.9357 119.53 35.0238 119.491 34.1053C119.068 24.5721 115.042 16.7748 107.876 10.453C107.017 9.69409 106.655 9.91231 106.072 10.7168C102.47 15.6674 98.8285 20.592 95.1677 25.5036C94.6889 26.1452 94.7508 26.4872 95.3045 27.0637C98.0338 29.8973 99.1575 33.2813 98.5875 37.1669C98.4898 37.8313 98.6429 38.157 99.3041 38.3654C105.31 40.261 111.309 42.1696 117.302 44.1043C118.061 44.3485 118.374 44.1401 118.537 43.4105C119.019 41.2446 119.436 39.0755 119.468 36.662V36.6588ZM87.6017 57.6599H87.5984C87.5984 60.7085 87.6375 63.757 87.5756 66.8023C87.5528 67.8445 87.859 68.1409 88.9208 68.0237C102.255 66.5808 111.541 59.7183 117.074 47.7521C117.481 46.8695 117.257 46.5666 116.354 46.2832C110.59 44.4821 104.838 42.6517 99.1021 40.7626C98.1088 40.4369 97.6072 40.4629 97.0405 41.4791C95.2003 44.7817 92.3048 46.749 88.5364 47.3873C87.7743 47.5176 87.5789 47.801 87.5854 48.5143C87.618 51.5628 87.5984 54.6081 87.5984 57.6567L87.6017 57.6599ZM86.4096 45.2149C91.9074 45.2084 96.3174 40.8668 96.3304 35.4407C96.3467 30.0959 91.8456 25.6338 86.4129 25.6078C81.0258 25.5785 76.4172 30.0731 76.4041 35.3658C76.3911 40.7984 80.8825 45.2214 86.4064 45.2149H86.4096Z" fill="#16962F"/>
</g>
<g opacity="0.25">
<path d="M86.3163 38.6814C84.4793 38.6814 82.9844 37.1864 82.9844 35.3495C82.9844 33.5125 84.4793 32.0176 86.3163 32.0176C88.1532 32.0176 89.6482 33.5125 89.6482 35.3495C89.6482 37.1864 88.1532 38.6814 86.3163 38.6814ZM86.3163 34.2942C85.7365 34.2942 85.2643 34.7665 85.2643 35.3462C85.2643 35.926 85.7365 36.3982 86.3163 36.3982C86.896 36.3982 87.3683 35.926 87.3683 35.3462C87.3683 34.7665 86.896 34.2942 86.3163 34.2942Z" fill="#16962F"/>
</g>
<path d="M12.2012 12.1007C10.6964 11.5633 8.28299 11.293 4.96737 11.293H0.375V33.4634H7.42966C10.1916 33.4634 12.3347 33.0627 13.8655 32.2615C15.3963 31.4603 16.6404 30.2096 17.6013 28.516C18.5621 26.8223 19.0441 24.8681 19.0441 22.6566C19.0441 20.0869 18.4383 17.8721 17.2267 16.0124C16.0151 14.1526 14.3377 12.8498 12.1946 12.104L12.2012 12.1007ZM15.3702 27.8646C14.4127 29.2749 13.1033 30.2487 11.439 30.7861C10.2437 31.1639 8.11363 31.3528 5.05531 31.3528H2.49856V13.4426H4.06844C7.24727 13.4426 9.53368 13.6576 10.9309 14.0842C12.7842 14.6412 14.227 15.6801 15.2595 17.1946C16.2919 18.7092 16.8066 20.5396 16.8066 22.6794C16.8066 24.8193 16.3278 26.4478 15.3702 27.8581V27.8646Z" fill="#16962F"/>
<path d="M36.9477 31.3274C33.4497 31.3274 29.9517 31.3274 26.4537 31.3274V22.6279H36.9477V20.4751H26.4537V13.5377H36.9477V11.3555H24.2422V33.5259C28.4795 33.5259 32.7136 33.5259 36.951 33.5259V31.3274H36.9477Z" fill="#16962F"/>
<path d="M73.8728 20.8536C74.6545 19.8928 75.0454 18.6779 75.0454 17.2122C75.0454 15.7466 74.648 14.5155 73.85 13.5481C73.0521 12.5808 72.0164 11.9392 70.7396 11.62C69.8635 11.4018 68.1536 11.291 65.6131 11.291H61.2031V33.4614H63.4146V23.1465H65.0008C67.7529 23.1465 69.629 23.026 70.6354 22.7882C72.0098 22.4593 73.0879 21.8144 73.8728 20.8536ZM72.1564 19.2707C71.7525 19.8927 71.1989 20.3422 70.4953 20.6158C69.7918 20.8894 68.6877 21.0262 67.183 21.0262L63.4146 20.9806V13.4471H67.3328C68.8278 13.4471 69.9026 13.5774 70.5605 13.8347C71.2184 14.0953 71.7493 14.5317 72.1532 15.1506C72.557 15.7694 72.759 16.4566 72.759 17.2122C72.759 17.9679 72.557 18.6453 72.1532 19.2674L72.1564 19.2707Z" fill="#16962F"/>
<path d="M77.3178 33.4634L80.7702 26.1547H90.3392L93.821 33.4634H96.1823L85.8511 11.293H85.3137L74.8359 33.4634H77.3178ZM85.584 15.9863L89.3524 24.0278H81.7571L85.584 15.9863Z" fill="#16962F"/>
<path d="M103.162 16.7666L117.75 33.5239H118.258V11.3535H116.076V28.3225L101.338 11.3535H100.859V33.5239H103.162V16.7666Z" fill="#16962F"/>
<path d="M128.544 26.1527H138.113L141.594 33.4614H143.956L133.625 11.291H133.087L122.609 33.4614H125.091L128.544 26.1527ZM133.357 15.9876L137.126 24.0291H129.53L133.357 15.9876Z" fill="#16962F"/>
<path d="M169.101 11.3535H168.742L159.834 29.5341L150.819 11.3535H150.461L147.305 33.5239H149.445L151.597 17.5581L159.535 33.5239H160.101L167.935 17.6623L170.104 33.5239H172.302L169.101 11.3535Z" fill="#16962F"/>
<path d="M55.5962 31.3254C52.0982 31.3254 48.6001 31.3254 45.1021 31.3254V22.626H55.5962V20.4731H45.1021V13.5357H55.5962V11.3535H42.8906V33.5239C47.128 33.5239 51.3621 33.5239 55.5994 33.5239V31.3254H55.5962Z" fill="#16962F"/>
<path d="M42.7055 48.9929C41.3571 47.9996 40.5624 47.384 40.3246 47.1462C39.8784 46.7163 39.5722 46.3124 39.4061 45.9314C39.24 45.5503 39.1586 45.1627 39.1586 44.7654C39.1586 44.1107 39.3931 43.5603 39.8654 43.1108C40.3376 42.6613 40.9402 42.4333 41.6762 42.4333C42.256 42.4333 42.7901 42.5799 43.2754 42.873C43.764 43.1662 44.3502 43.7687 45.0375 44.6774L46.5389 43.5472C45.6954 42.3975 44.8974 41.6061 44.145 41.1729C43.3927 40.7397 42.5849 40.5215 41.7251 40.5215C40.8653 40.5215 40.1487 40.7137 39.4485 41.098C38.7482 41.4823 38.2108 42.0002 37.8297 42.6548C37.4487 43.3095 37.2598 44.0358 37.2598 44.837C37.2598 45.8532 37.5855 46.7912 38.2401 47.6543C38.6049 48.1754 39.5559 49.0157 41.0932 50.172C42.624 51.0253 43.676 51.8591 44.2558 52.6766C44.6694 53.2726 44.8746 53.8752 44.8746 54.4875C44.8746 55.0347 44.7346 55.546 44.4545 56.0248C44.1744 56.5036 43.7607 56.8879 43.2135 57.1778C42.6664 57.4676 42.0834 57.611 41.4645 57.611C40.0249 57.611 38.7547 56.598 37.6571 54.5722L36.0938 55.5135C36.8559 56.9107 37.6897 57.9073 38.5984 58.5034C39.5071 59.0994 40.5265 59.3958 41.6502 59.3958C43.0963 59.3958 44.3274 58.904 45.3404 57.9204C46.3533 56.9368 46.8614 55.774 46.8614 54.4354C46.8614 53.5169 46.565 52.6733 45.9755 51.9047C45.386 51.136 44.2949 50.1655 42.7055 48.9897V48.9929Z" fill="#16962F"/>
<path d="M56.3086 43.3466C57.556 42.6431 58.9174 42.2914 60.3896 42.2914C61.7282 42.2914 62.9594 42.5584 64.0798 43.0926C65.2002 43.6267 66.1577 44.4149 66.9524 45.4572L68.4148 44.3661C67.5289 43.1349 66.3955 42.1774 65.0113 41.4934C63.627 40.8094 62.0735 40.4707 60.3538 40.4707C57.5169 40.4707 55.1556 41.3924 53.2633 43.2359C51.371 45.0794 50.4297 47.3462 50.4297 50.0332C50.4297 52.3229 51.2081 54.3748 52.7617 56.1857C54.6214 58.3288 57.1652 59.3971 60.3896 59.3971C62.0767 59.3971 63.6075 59.0779 64.9787 58.4428C66.3499 57.8077 67.4964 56.9055 68.4148 55.7395L66.9524 54.6354C65.223 56.6547 63.0701 57.6611 60.4906 57.6611C58.1488 57.6611 56.2109 56.9772 54.6736 55.6092C53.1363 54.2413 52.3676 52.4369 52.3676 50.1961C52.3676 48.7076 52.7128 47.369 53.4033 46.1835C54.0938 44.9979 55.0644 44.0534 56.3118 43.3499L56.3086 43.3466Z" fill="#16962F"/>
<path d="M83.7842 48.5576H74.4203V40.8418H72.5703V59.2373H74.4203V50.3685H83.7842V59.2373H85.6211V40.8418H83.7842V48.5576Z" fill="#16962F"/>
<path d="M99.3803 40.5208C97.6606 40.5208 96.0614 40.9475 94.5794 41.8041C93.1008 42.6607 91.9348 43.8462 91.0814 45.3575C90.2281 46.8687 89.8047 48.507 89.8047 50.269C89.8047 52.6271 90.7427 54.7376 92.622 56.6006C94.5013 58.4636 96.8007 59.3984 99.5301 59.3984C102.259 59.3984 104.497 58.5353 106.367 56.8058C108.236 55.0764 109.171 52.8681 109.171 50.1811C109.171 47.4941 108.233 45.1686 106.36 43.3088C104.487 41.4491 102.162 40.5176 99.3835 40.5176L99.3803 40.5208ZM106.253 53.7377C105.575 54.9331 104.627 55.8776 103.412 56.5713C102.198 57.2651 100.878 57.6136 99.4552 57.6136C97.3218 57.6136 95.5012 56.9361 93.9899 55.578C92.4819 54.223 91.7263 52.4512 91.7263 50.269C91.7263 48.7969 92.0651 47.4583 92.7425 46.2564C93.42 45.0513 94.371 44.097 95.5891 43.3903C96.8105 42.6835 98.097 42.3285 99.4519 42.3285C100.807 42.3285 102.152 42.6835 103.383 43.3903C104.614 44.097 105.572 45.0416 106.249 46.2238C106.927 47.4061 107.265 48.7252 107.265 50.1811C107.265 51.3569 106.927 52.5392 106.249 53.7345L106.253 53.7377Z" fill="#16962F"/>
<path d="M122.13 40.5208C120.411 40.5208 118.811 40.9475 117.329 41.8041C115.851 42.6607 114.685 43.8462 113.831 45.3575C112.978 46.8687 112.555 48.507 112.555 50.269C112.555 52.6271 113.493 54.7376 115.372 56.6006C117.251 58.4636 119.551 59.3984 122.28 59.3984C125.009 59.3984 127.247 58.5353 129.117 56.8058C130.986 55.0764 131.921 52.8681 131.921 50.1811C131.921 47.4941 130.983 45.1686 129.11 43.3088C127.237 41.4491 124.912 40.5176 122.134 40.5176L122.13 40.5208ZM129.003 53.7377C128.325 54.9331 127.377 55.8776 126.162 56.5713C124.948 57.2651 123.628 57.6136 122.205 57.6136C120.072 57.6136 118.251 56.9361 116.74 55.578C115.232 54.223 114.476 52.4512 114.476 50.269C114.476 48.7969 114.815 47.4583 115.493 46.2564C116.17 45.0513 117.121 44.097 118.339 43.3903C119.56 42.6835 120.847 42.3285 122.202 42.3285C123.557 42.3285 124.902 42.6835 126.133 43.3903C127.364 44.097 128.322 45.0416 128.999 46.2238C129.677 47.4061 130.015 48.7252 130.015 50.1811C130.015 51.3569 129.677 52.5392 128.999 53.7345L129.003 53.7377Z" fill="#16962F"/>
<path d="M137.956 40.7891H136.109V59.1878H145.027V57.4128H137.956V40.7891Z" fill="#16962F"/>
</svg>
