<svg width="206" height="71" viewBox="0 0 206 71" fill="none" xmlns="http://www.w3.org/2000/svg">
<path d="M3.59156 16.3418C4.08057 16.6038 4.58988 16.8259 5.11457 17.0061C7.60297 17.6563 8.33519 19.3761 7.90639 21.9899C13.5955 18.153 19.4978 17.0342 25.7961 19.2063C34.8323 22.325 39.4459 32.0255 38.1783 39.896C37.1145 46.4919 33.5003 50.6567 28.4743 53.7965C26.2547 55.1831 23.7413 56.031 21.1353 56.2723C18.5294 56.5136 15.9031 56.1415 13.4666 55.186C12.3759 54.79 11.4281 54.0145 10.362 53.5365C9.55984 53.232 8.73783 52.9827 7.90171 52.7902C7.70165 53.613 7.56571 54.45 7.49516 55.2938C7.45181 59.5993 7.41901 63.9036 7.49516 68.2079C7.52328 69.6946 6.98087 70.2628 5.55859 70.1058C1.21094 70.0683 1.21094 70.0683 1.21094 65.8097C1.21094 50.3545 1.21094 34.8993 1.21094 19.4441V16.999L3.59156 16.3418ZM19.5247 25.7646C18.009 25.7333 16.5023 26.0061 15.0937 26.5668C13.6851 27.1275 12.4031 27.9649 11.3236 29.0294C10.244 30.0938 9.38871 31.3639 8.80823 32.7645C8.22775 34.165 7.93387 35.6678 7.9439 37.1838C7.9439 43.3779 13.5287 49.3259 19.308 49.2884C25.345 49.2485 31.0599 43.2759 31.0447 37.0421C31.0122 34.0197 29.7809 31.1339 27.6213 29.0191C25.4617 26.9043 22.5507 25.7337 19.5283 25.7646H19.5247Z" fill="#191A33"/>
<path d="M91.6425 56.1204L84.5335 56.6406V52.7112C80.1495 55.4646 74.9608 56.6487 69.8163 56.07C64.3662 55.4784 60.2236 52.4019 57.0979 47.964C52.4117 41.3142 53.2962 30.9987 58.4792 24.8562C63.9223 18.4044 75.2161 16.4479 84.4222 21.9566C83.656 17.2141 87.7553 17.3324 90.2893 15.8574C90.7041 16.5622 91.0013 17.3299 91.1692 18.1302C91.2758 21.0111 91.2559 23.9002 91.2078 26.7845C91.0485 36.4253 90.8564 46.0649 90.7146 55.7057C90.717 55.8357 91.3191 55.9822 91.6425 56.1204ZM61.3694 37.2442C61.3701 40.262 62.5384 43.1624 64.6297 45.3379C66.7209 47.5135 69.573 48.7954 72.5883 48.9153C75.6492 48.9537 78.6042 47.7956 80.8239 45.6876C83.0437 43.5797 84.3528 40.6885 84.4726 37.6297C84.4795 34.5714 83.2983 31.63 81.1781 29.426C79.058 27.2219 76.1647 25.9275 73.1085 25.8157C70.0458 25.8068 67.1016 26.9984 64.9071 29.1348C62.7126 31.2712 61.4426 34.1824 61.3694 37.2442Z" fill="#191A33"/>
<path d="M133.609 21.5817C130.337 29.2359 127.064 36.8901 123.789 44.5443C121.779 49.2118 119.806 53.898 117.654 58.4999C113.456 67.4764 107.258 70.8938 97.1197 69.9191V62.4422C98.3375 62.3469 99.5614 62.3579 100.777 62.475C105.147 63.2471 107.502 60.5408 109.708 57.5123C110.394 56.6744 110.809 55.6478 110.899 54.5685C110.988 53.4893 110.747 52.4084 110.207 51.4694C105.666 41.6447 101.406 31.69 97.0857 21.7657C96.734 20.7615 96.4598 19.7318 96.2656 18.6856C96.4914 18.584 96.727 18.5055 96.9686 18.4513C103.86 18.3424 103.855 18.3447 106.66 24.7508C109.364 30.9304 112.077 37.1065 114.796 43.279C114.984 43.7078 115.223 44.1132 115.509 44.6685L126.17 20.4875C128.384 18.5298 131.025 19.1308 133.622 19.1109L133.609 21.5817Z" fill="#191A33"/>
<path d="M169.669 28.2189C173.733 20.9165 180.199 17.8541 188.22 18.6964C195.5 19.4603 200.353 23.5162 203.641 30.4366C208.199 40.0329 202.235 54.8203 187.923 56.5542C181.328 57.3532 173.408 53.4718 170.13 47.559L168.643 44.6195L168.663 44.6523C168.514 40.2926 168.366 35.9332 168.219 31.5742V31.5883L169.185 29.1678L169.178 29.1819L169.669 28.2189ZM186.005 48.973C187.502 49.0149 188.992 48.7585 190.389 48.2187C191.786 47.6789 193.061 46.8665 194.14 45.8289C195.22 44.7912 196.082 43.5491 196.677 42.1748C197.271 40.8006 197.587 39.3217 197.604 37.8245C197.637 36.2892 197.367 34.7624 196.809 33.3318C196.251 31.9012 195.416 30.5949 194.351 29.4879C193.287 28.3809 192.015 27.4949 190.607 26.8809C189.2 26.2668 187.685 25.9368 186.149 25.9097C183.088 25.9913 180.175 27.2453 178.011 29.4128C175.847 31.5802 174.598 34.4957 174.522 37.5574C174.584 40.5773 175.816 43.4551 177.959 45.5845C180.101 47.7139 182.985 48.9287 186.005 48.973Z" fill="#191A33"/>
<path d="M162.451 25.758H151.934C151.934 31.6158 151.7 37.285 152.025 42.9202C152.214 46.1291 155.846 48.7873 159.137 48.8951C160.403 48.9373 161.672 48.9021 163.019 48.9021V56.208C152.715 57.9325 144.298 50.936 144.215 40.6262C144.175 35.7631 144.208 30.9023 144.208 25.8728H139.117V18.5576H144.155C144.155 14.6915 144.073 11.1053 144.218 7.52853C144.273 7.07129 144.422 6.63036 144.656 6.23354C144.889 5.83672 145.203 5.49261 145.576 5.2229C147.491 3.99628 149.577 3.03444 151.887 1.8125V18.4732C152.582 18.7469 153.305 18.9403 154.044 19.0496C156.196 19.1305 158.355 19.1492 160.509 19.0649C161.943 19.0086 162.552 19.4808 162.46 20.9722C162.371 22.5608 162.45 24.1623 162.451 25.758Z" fill="#191A33"/>
<path d="M42.6719 5.62423L48.3832 2.8125C48.8273 3.67604 49.1348 4.60321 49.2947 5.56097C49.3451 22.2557 49.324 38.9504 49.3193 55.6463C48.2005 55.5872 47.079 55.5989 45.9616 55.6814C43.6595 55.9849 43.0058 55.1179 43.0222 52.7924C43.1276 37.9921 43.0843 23.1918 43.0608 8.39029C42.9971 7.4602 42.8671 6.53583 42.6719 5.62423Z" fill="#191A33"/>
<path d="M202.966 11.9515C199.749 15.3807 196.054 15.902 192.429 13.5765C191.292 12.8478 190.231 12.0007 189.13 11.2158C186.06 9.02732 185.654 9.15971 182.587 11.4935C180.876 12.8733 178.948 13.9604 176.882 14.7106C173.976 15.6478 171.419 14.5371 169.227 11.9562L186.061 0.203125L202.966 11.9515Z" fill="#E11E1A"/>
<path d="M3.58747 16.3446L1.2057 17.0018V19.4468C1.2057 34.902 1.2057 50.3573 1.2057 65.8125C1.2057 70.0711 1.2057 70.0711 5.55336 70.1074C5.54633 70.2386 5.54241 70.3694 5.54163 70.4999H0.65625V14.9844L3.58747 16.3446Z" fill="#191A33"/>
<path d="M42.6859 5.625C42.881 6.53584 43.011 7.4594 43.0748 8.3887C43.0994 23.189 43.1416 37.9893 43.0362 52.7908C43.0198 55.1163 43.6735 55.9833 45.9756 55.6799C47.093 55.5973 48.2145 55.5856 49.3333 55.6447C49.4821 55.6529 49.6297 55.6576 49.7773 55.6623L42.5312 56.3652V50.0142C42.5312 35.9321 42.534 21.8491 42.5394 7.76543C42.5383 7.04961 42.6355 6.33731 42.6859 5.625Z" fill="#191A33"/>
<path d="M49.7785 55.6618C49.6309 55.6618 49.4833 55.6536 49.3345 55.6442C49.3345 38.9495 49.3603 22.2548 49.3099 5.55888C49.1499 4.60112 48.8425 3.67395 48.3984 2.81039L49.5512 2.24805C49.7305 2.43901 49.8207 2.49057 49.8207 2.54212C49.8105 20.2491 49.7965 37.9556 49.7785 55.6618Z" fill="#191A33"/>
<path d="M91.6434 56.1284C91.32 55.9913 90.7061 55.8484 90.7143 55.7148C90.8502 46.0741 91.0471 36.4345 91.2076 26.7937C91.2556 23.9093 91.2755 21.0203 91.1689 18.1394C91.001 17.339 90.7038 16.5714 90.2891 15.8666L91.8496 15.0781V17.0569C91.8496 29.384 91.8472 41.7108 91.8425 54.0372C91.8425 54.7307 91.7137 55.4255 91.6434 56.1284Z" fill="#191A33"/>
<path d="M133.609 21.5817V19.1156C131.01 19.1355 128.37 18.5298 126.156 20.4922C126.447 18.8028 127.379 18.1877 129.131 18.3517C131.005 18.5275 132.908 18.3916 135.197 18.3916L133.609 21.5817Z" fill="#191A33"/>
<path d="M5.53906 70.496C5.53906 70.3648 5.54298 70.234 5.55079 70.1036C6.97306 70.2617 7.5143 69.6935 7.48618 68.2068C7.40651 63.9025 7.43932 59.5982 7.48618 55.2927C7.55671 54.4489 7.69265 53.6118 7.89273 52.7891V70.496H5.53906Z" fill="#191A33"/>
<path d="M162.457 25.7578C162.457 24.161 162.377 22.5606 162.472 20.9697C162.562 19.4783 161.953 19.0061 160.52 19.0623C158.368 19.1467 156.209 19.128 154.055 19.0471C153.317 18.9378 152.593 18.7444 151.898 18.4707H163.367L162.457 25.7578Z" fill="#191A33"/>
<path d="M168.221 31.5723C168.369 35.932 168.517 40.2914 168.665 44.6504C167.711 42.6136 167.18 40.4046 167.103 38.1568C167.027 35.909 167.407 33.6691 168.221 31.5723Z" fill="#191A33"/>
</svg>
